<svg width="1119" height="230" viewBox="0 0 1119 230" fill="none" xmlns="http://www.w3.org/2000/svg">
<path d="M243.968 26.568L192.256 205H166.144L124.672 61.384L81.664 205L55.808 205.256L5.888 26.568H30.72L69.632 177.864L112.64 26.568H138.752L179.712 177.352L218.88 26.568H243.968ZM406.934 26.568V205H383.638V124.104H292.758V205H269.462V26.568H292.758V104.904H383.638V26.568H406.934Z" fill="white"/>
<path d="M569.286 206H488.714V179.142H569.286V206Z" fill="white"/>
<path d="M488.714 179.142H461.858V152.286H488.714V179.142Z" fill="white"/>
<path d="M596.142 179.142H569.286V152.286H596.142V179.142Z" fill="white"/>
<path d="M461.858 152.286H435V71.7139H461.858V152.286Z" fill="white"/>
<path d="M623 152.286H596.142V71.7139H623V152.286Z" fill="white"/>
<path d="M488.714 71.7139H461.858V44.8584H488.714V71.7139Z" fill="white"/>
<path d="M596.142 71.7139H569.286V44.8584H596.142V71.7139Z" fill="white"/>
<path d="M569.286 44.8584H488.714V18H569.286V44.8584Z" fill="white"/>
<path d="M694.008 26.568V205H670.712V26.568H694.008Z" fill="white"/>
<path d="M851.184 165.32H773.36L759.024 205H734.448L798.96 27.592H825.84L890.096 205H865.52L851.184 165.32ZM844.528 146.376L812.272 56.264L780.016 146.376H844.528ZM1099.2 27.848V205H1075.91V72.904L1017.03 205H1000.64L941.508 72.648V205H918.212V27.848H943.3L1008.84 174.28L1074.37 27.848H1099.2Z" fill="white"/>
</svg>
