<svg width="85" height="85" viewBox="0 0 85 85" fill="none" xmlns="http://www.w3.org/2000/svg">
<path d="M56.4287 5C59.1901 5 61.4287 7.23858 61.4287 10V14.2861H65.7139L65.9707 14.293C68.6128 14.4267 70.7139 16.6109 70.7139 19.2861V23.5713H75C77.7614 23.5713 80 25.8099 80 28.5713V56.4287C80 59.1901 77.7614 61.4287 75 61.4287H70.7139V65.7139C70.7139 68.4753 68.4753 70.7139 65.7139 70.7139H61.4287V75C61.4287 77.7614 59.1901 80 56.4287 80H28.5713C25.8099 80 23.5713 77.7614 23.5713 75V70.7139H19.2861C16.5247 70.7139 14.2861 68.4753 14.2861 65.7139V61.4287H10C7.23858 61.4287 5 59.1901 5 56.4287V28.5713C5 25.8099 7.23858 23.5713 10 23.5713H14.2861V19.2861L14.293 19.0293C14.4267 16.3872 16.6109 14.2861 19.2861 14.2861H23.5713V10C23.5713 7.23858 25.8099 5 28.5713 5H56.4287ZM33.5713 28.5713C33.5713 31.3327 31.3327 33.5713 28.5713 33.5713H24.2861V51.4287H28.5713C31.3327 51.4287 33.5713 53.6673 33.5713 56.4287V60.7139H51.4287V56.4287C51.4287 53.6673 53.6673 51.4287 56.4287 51.4287H60.7139V33.5713H56.4287C53.6673 33.5713 51.4287 31.3327 51.4287 28.5713V24.2861H33.5713V28.5713Z" fill="black" stroke="white" stroke-width="10" stroke-linejoin="round"/>
<path d="M56.4287 75H28.5713V65.7139H56.4287V75Z" fill="black"/>
<path d="M28.5713 65.7139H19.2861V56.4287H28.5713V65.7139Z" fill="black"/>
<path d="M65.7139 65.7139H56.4287V56.4287H65.7139V65.7139Z" fill="black"/>
<path d="M19.2861 56.4287H10V28.5713H19.2861V56.4287Z" fill="black"/>
<path d="M75 56.4287H65.7139V28.5713H75V56.4287Z" fill="black"/>
<path d="M28.5713 28.5713H19.2861V19.2861H28.5713V28.5713Z" fill="black"/>
<path d="M65.7139 28.5713H56.4287V19.2861H65.7139V28.5713Z" fill="black"/>
<path d="M56.4287 19.2861H28.5713V10H56.4287V19.2861Z" fill="black"/>
</svg>
